<?xml version="1.0" encoding="UTF-8" standalone="no"?>
<!-- Created with Inkscape (http://www.inkscape.org/) -->

<svg
   width="93mm"
   height="104mm"
   viewBox="0 0 93 104"
   version="1.1"
   id="svg5"
   xml:space="preserve"
   sodipodi:docname="graphqxl.svg"
   inkscape:version="1.2.1 (9c6d41e, 2022-07-14)"
   xmlns:inkscape="http://www.inkscape.org/namespaces/inkscape"
   xmlns:sodipodi="http://sodipodi.sourceforge.net/DTD/sodipodi-0.dtd"
   xmlns="http://www.w3.org/2000/svg"
   xmlns:svg="http://www.w3.org/2000/svg"><sodipodi:namedview
     id="namedview7"
     pagecolor="#ffffff"
     bordercolor="#666666"
     borderopacity="1.0"
     inkscape:showpageshadow="2"
     inkscape:pageopacity="0.0"
     inkscape:pagecheckerboard="0"
     inkscape:deskcolor="#d1d1d1"
     inkscape:document-units="mm"
     showgrid="false"
     inkscape:zoom="1.1595427"
     inkscape:cx="300.54952"
     inkscape:cy="306.15518"
     inkscape:window-width="1920"
     inkscape:window-height="1080"
     inkscape:window-x="0"
     inkscape:window-y="469"
     inkscape:window-maximized="0"
     inkscape:current-layer="g6769" /><defs
     id="defs2" /><g
     inkscape:label="Layer 1"
     inkscape:groupmode="layer"
     id="layer1"><g
       id="g6769"
       transform="translate(9.8116987,5.704476)"><rect
         style="fill:#323232;fill-opacity:1;stroke-width:0.875853"
         id="rect3437"
         width="81.394051"
         height="7.8698106"
         x="13.239593"
         y="18.35198"
         ry="0"
         transform="matrix(0.86704544,0.49822907,-0.50629055,0.86236296,0,0)" /><rect
         style="fill:#323232;fill-opacity:1;stroke-width:0.875853"
         id="rect3437-2"
         width="81.394051"
         height="7.8698106"
         x="-35.126881"
         y="54.980637"
         ry="0"
         transform="matrix(0.8640165,-0.50346349,0.49538672,0.86867255,0,0)" /><g
         id="g2990"
         transform="matrix(0.26458333,0,0,0.26458333,-16.179843,-6.3681424)">
	<g
   id="g2946">
		<g
   id="g2944">

				<rect
   x="37.900002"
   y="312.20001"
   transform="matrix(-0.866,-0.5,0.5,-0.866,83.0693,663.3409)"
   fill="#e535ab"
   width="185"
   height="16.6"
   id="rect2942" />
		</g>
	</g>
	<g
   id="g2952">
		<g
   id="g2950">

				<rect
   x="177.10001"
   y="71.099998"
   transform="matrix(-0.866,-0.5,0.5,-0.866,463.3409,283.0693)"
   fill="#e535ab"
   width="185"
   height="16.6"
   id="rect2948" />
		</g>
	</g>
	<g
   id="g2958">
		<g
   id="g2956">

				<rect
   x="122.1"
   y="-13"
   transform="matrix(-0.5,-0.866,0.866,-0.5,126.7903,232.1221)"
   fill="#e535ab"
   width="16.6"
   height="185"
   id="rect2954" />
		</g>
	</g>

	<g
   id="g2964">
		<g
   id="g2962">
			<rect
   x="52.5"
   y="107.5"
   fill="#e535ab"
   width="16.6"
   height="185"
   id="rect2960" />
		</g>
	</g>
	<g
   id="g2970">
		<g
   id="g2968">
			<rect
   x="330.89999"
   y="107.5"
   fill="#e535ab"
   width="16.6"
   height="185"
   id="rect2966" />
		</g>
	</g>
	<g
   id="g2976">
		<g
   id="g2974">

				<rect
   x="262.39999"
   y="240.10001"
   transform="matrix(-0.5,-0.866,0.866,-0.5,126.7953,714.2875)"
   fill="#e535ab"
   width="14.5"
   height="160.89999"
   id="rect2972" />
		</g>
	</g>
	<path
   fill="#e535ab"
   d="m 369.5,297.9 c -9.6,16.7 -31,22.4 -47.7,12.8 -16.7,-9.6 -22.4,-31 -12.8,-47.7 9.6,-16.7 31,-22.4 47.7,-12.8 16.8,9.7 22.5,31 12.8,47.7"
   id="path2978" />
	<path
   fill="#e535ab"
   d="m 90.9,137 c -9.6,16.7 -31,22.4 -47.7,12.8 -16.7,-9.6 -22.4,-31 -12.8,-47.7 9.6,-16.7 31,-22.4 47.7,-12.8 16.7,9.7 22.4,31 12.8,47.7"
   id="path2980" />
	<path
   fill="#e535ab"
   d="m 30.5,297.9 c -9.6,-16.7 -3.9,-38 12.8,-47.7 16.7,-9.6 38,-3.9 47.7,12.8 9.6,16.7 3.9,38 -12.8,47.7 -16.8,9.6 -38.1,3.9 -47.7,-12.8"
   id="path2982" />
	<path
   fill="#e535ab"
   d="m 309.1,137 c -9.6,-16.7 -3.9,-38 12.8,-47.7 16.7,-9.6 38,-3.9 47.7,12.8 9.6,16.7 3.9,38 -12.8,47.7 -16.7,9.6 -38.1,3.9 -47.7,-12.8"
   id="path2984" />
	<path
   fill="#e535ab"
   d="m 200,395.8 c -19.3,0 -34.9,-15.6 -34.9,-34.9 0,-19.3 15.6,-34.9 34.9,-34.9 19.3,0 34.9,15.6 34.9,34.9 0,19.2 -15.6,34.9 -34.9,34.9"
   id="path2986" />
	<path
   fill="#e535ab"
   d="m 200,74 c -19.3,0 -34.9,-15.6 -34.9,-34.9 0,-19.3 15.6,-34.9 34.9,-34.9 19.3,0 34.9,15.6 34.9,34.9 0,19.3 -15.6,34.9 -34.9,34.9"
   id="path2988" />
</g></g></g></svg>
